####
#
# OBJ File Generated by Meshlab
#
####
# Object _surfaceTrou.obj
#
# Vertices: 108
# Faces: 172
#
####
vn 0.000000 0.000000 0.785398
v 0.000000 0.000000 0.000000
vn 0.000000 0.000000 0.901323
v 0.335887 0.335887 0.000000
vn 0.000000 0.000000 0.785403
v 0.000000 3.000000 0.000000
vn 0.000000 0.000000 0.785398
v 3.000000 3.000000 0.000000
vn 0.000000 0.000000 1.454882
v 3.000000 2.625000 0.000000
vn 0.000000 0.000000 0.785394
v 3.000000 0.000000 0.000000
vn 0.000000 0.000000 1.130368
v 1.875000 3.000000 0.000000
vn 0.000000 0.000000 1.130370
v 0.000000 1.875000 0.000000
vn 0.000000 0.000000 1.130372
v 3.000000 1.125000 0.000000
vn 0.000000 0.000000 1.130374
v 1.125000 0.000000 0.000000
vn 0.000000 0.000000 0.775055
v 0.909168 0.321656 0.000000
vn 0.000000 0.000000 1.089615
v 1.479020 2.642840 0.000000
vn 0.000000 0.000000 1.121693
v 3.000000 2.250000 0.000000
vn 0.000000 0.000000 1.121693
v 2.250000 0.000000 0.000000
vn 0.000000 0.000000 1.111291
v 3.000000 0.750000 0.000000
vn 0.000000 0.000000 1.101949
v 1.000000 1.333330 0.000000
vn 0.000000 0.000000 0.937695
v 0.670949 1.500000 0.000000
vn 0.000000 0.000000 1.101948
v 2.000000 1.333330 0.000000
vn 0.000000 0.000000 0.843860
v 2.090830 2.678340 0.000000
vn 0.000000 0.000000 0.988767
v 0.246232 1.727610 0.000000
vn 0.000000 0.000000 1.308973
v 1.166670 0.513021 0.000000
vn 0.000000 0.000000 0.989690
v 1.875000 0.000000 0.000000
vn 0.000000 0.000000 0.989690
v 1.125000 3.000000 0.000000
vn 0.000000 0.000000 1.424327
v 0.242577 1.226570 0.000000
vn 0.000000 0.000000 0.949792
v 2.428450 0.569358 0.000000
vn 0.000000 0.000000 0.949780
v 2.430640 2.428450 0.000000
vn 0.000000 0.000000 0.779078
v 0.513021 1.833330 0.000000
vn 0.000000 0.000000 1.528360
v 1.727610 2.753770 0.000000
vn 0.000000 0.000000 1.128330
v 1.000000 1.666670 0.000000
vn 0.000000 0.000000 1.128328
v 1.666670 2.000000 0.000000
vn 0.000000 0.000000 0.772200
v 1.500000 2.329050 0.000000
vn 0.000000 0.000000 1.128330
v 1.333330 1.000000 0.000000
vn 0.000000 0.000000 1.174703
v 0.357156 1.479020 0.000000
vn 0.000000 0.000000 1.232943
v 1.833330 0.513021 0.000000
vn 0.000000 0.000000 0.906182
v 2.093670 0.324370 0.000000
vn 0.000000 0.000000 1.002467
v 2.080160 0.684024 0.000000
vn 0.000000 0.000000 1.252761
v 2.486980 1.166670 0.000000
vn 0.000000 0.000000 0.903660
v 2.678340 0.909168 0.000000
vn 0.000000 0.000000 1.252765
v 1.833330 2.486980 0.000000
vn 0.000000 0.000000 0.933715
v 0.569358 0.571555 0.000000
vn 0.000000 0.000000 1.098562
v 0.919420 0.687183 0.000000
vn 0.000000 0.000000 0.933729
v 0.571555 2.430640 0.000000
vn 0.000000 0.000000 1.109285
v 2.315980 2.080160 0.000000
vn 0.000000 0.000000 1.050704
v 1.333330 2.000000 0.000000
vn 0.000000 0.000000 0.772199
v 1.500000 0.670949 0.000000
vn 0.000000 0.000000 1.223729
v 2.080580 2.312820 0.000000
vn 0.000000 0.000000 0.725684
v 3.000000 1.500000 0.000000
vn 0.000000 0.000000 1.174268
v 3.000000 1.875000 0.000000
vn 0.000000 0.000000 1.174263
v 0.000000 1.125000 0.000000
vn 0.000000 0.000000 0.725684
v 1.500000 3.000000 0.000000
vn 0.000000 0.000000 1.241642
v 1.226570 2.757420 0.000000
vn 0.000000 0.000000 1.050703
v 1.166670 2.486980 0.000000
vn 0.000000 0.000000 0.772223
v 2.329050 1.500000 0.000000
vn 0.000000 0.000000 0.877128
v 0.324370 0.906328 0.000000
vn 0.000000 0.000000 0.786445
v 1.500000 0.000000 0.000000
vn 0.000000 0.000000 1.203405
v 1.520980 0.357156 0.000000
vn 0.000000 0.000000 1.285494
v 1.272390 0.246232 0.000000
vn 0.000000 0.000000 1.387796
v 2.410160 2.758190 0.000000
vn 0.000000 0.000000 0.886627
v 0.906328 2.675630 0.000000
vn 0.000000 0.000000 1.371431
v 0.589750 2.758110 0.000000
vn 0.000000 0.000000 1.371449
v 2.758110 2.410250 0.000000
vn 0.000000 0.000000 1.027998
v 0.684024 0.919836 0.000000
vn 0.000000 0.000000 1.043355
v 2.312820 0.919420 0.000000
vn 0.000000 0.000000 0.870071
v 1.000000 2.000000 0.000000
vn 0.000000 0.000000 0.988941
v 2.000000 1.666670 0.000000
vn 0.000000 0.000000 1.282580
v 2.222020 1.812720 0.000000
vn 0.000000 0.000000 0.988949
v 1.666670 1.000000 0.000000
vn 0.000000 0.000000 1.311386
v 0.241815 2.410160 0.000000
vn 0.000000 0.000000 0.985796
v 2.250000 3.000000 0.000000
vn 0.000000 0.000000 0.844386
v 3.000000 0.375000 0.000000
vn 0.000000 0.000000 0.985686
v 0.000000 0.750000 0.000000
vn 0.000000 0.000000 0.844758
v 0.000000 0.375000 0.000000
vn 0.000000 0.000000 1.311148
v 2.410250 0.241888 0.000000
vn 0.000000 0.000000 1.288119
v 0.785031 1.833330 0.000000
vn 0.000000 0.000000 0.911624
v 1.000000 1.000000 0.000000
vn 0.000000 0.000000 0.911288
v 2.000000 2.000000 0.000000
vn 0.000000 0.000000 1.318987
v 1.833330 2.214970 0.000000
vn 0.000000 0.000000 0.911288
v 2.000000 1.000000 0.000000
vn 0.000000 0.000000 1.318987
v 2.214970 1.166670 0.000000
vn 0.000000 0.000000 1.318992
v 1.166670 0.785031 0.000000
vn 0.000000 0.000000 1.160670
v 0.241888 0.589750 0.000000
vn 0.000000 0.000000 1.153998
v 0.589842 0.241815 0.000000
vn 0.000000 0.000000 0.804793
v 0.000000 1.500000 0.000000
vn 0.000000 0.000000 1.092402
v 2.642840 1.520980 0.000000
vn 0.000000 0.000000 1.244395
v 2.753770 1.272390 0.000000
vn 0.000000 0.000000 0.990504
v 0.687183 2.080580 0.000000
vn 0.000000 0.000000 1.044495
v 0.750000 0.000000 0.000000
vn 0.000000 0.000000 1.044506
v 0.000000 2.250000 0.000000
vn 0.000000 0.000000 0.866277
v 0.321656 2.090830 0.000000
vn 0.000000 0.000000 1.034205
v 0.750000 3.000000 0.000000
vn 0.000000 0.000000 0.866824
v 2.675630 2.093670 0.000000
vn 0.000000 0.000000 0.842312
v 0.000000 2.625000 0.000000
vn 0.000000 0.000000 1.100118
v 0.335887 2.664110 0.000000
vn 0.000000 0.000000 0.842325
v 0.375000 0.000000 0.000000
vn 0.000000 0.000000 0.842321
v 2.625000 3.000000 0.000000
vn 0.000000 0.000000 1.199169
v 2.758190 0.589842 0.000000
vn 0.000000 0.000000 1.100089
v 2.664110 0.335887 0.000000
vn 0.000000 0.000000 0.841958
v 0.375000 3.000000 0.000000
vn 0.000000 0.000000 0.841954
v 2.625000 0.000000 0.000000
vn 0.000000 0.000000 1.100253
v 2.664110 2.664110 0.000000
vn 0.000000 0.000000 1.207909
v 0.777976 1.187280 0.000000
vn 0.000000 0.000000 0.889974
v 0.513021 1.166670 0.000000
vn 0.000000 0.000000 1.362699
v 1.773430 0.242577 0.000000
vn 0.000000 0.000000 0.889984
v 2.486980 1.833330 0.000000
vn 0.000000 0.000000 1.362699
v 2.757420 1.773430 0.000000
vn 0.000000 0.000000 0.943715
v 0.919836 2.315980 0.000000
vn 0.000000 0.000000 1.155311
v 1.187280 2.222020 0.000000
vn 0.000000 0.000000 1.155332
v 1.812720 0.777976 0.000000
# 108 vertices, 0 vertices normals

f 3//3 92//92 93//93
f 4//4 95//95 100//100
f 1//1 94//94 2//2
f 6//6 70//70 97//97
f 3//3 93//93 98//98
f 1//1 2//2 72//72
f 4//4 100//100 5//5
f 6//6 97//97 99//99
f 7//7 28//28 19//19
f 8//8 20//20 89//89
f 9//9 85//85 38//38
f 10//10 57//57 11//11
f 27//27 33//33 17//17
f 39//39 12//12 31//31
f 37//37 84//84 53//53
f 21//21 56//56 45//45
f 69//69 7//7 19//19
f 88//88 8//8 89//89
f 48//48 13//13 91//91
f 22//22 14//14 35//35
f 23//23 90//90 59//59
f 49//49 71//71 54//54
f 15//15 9//9 38//38
f 87//87 10//10 11//11
f 44//44 30//30 31//31
f 16//16 29//29 17//17
f 65//65 18//18 53//53
f 67//67 32//32 45//45
f 39//39 19//19 28//28
f 27//27 89//89 20//20
f 37//37 38//38 85//85
f 21//21 11//11 57//57
f 48//48 91//91 105//105
f 22//22 35//35 103//103
f 23//23 59//59 51//51
f 49//49 54//54 24//24
f 40//40 62//62 54//54
f 42//42 106//106 59//59
f 25//25 36//36 35//35
f 26//26 43//43 91//91
f 27//27 20//20 33//33
f 39//39 28//28 12//12
f 37//37 85//85 84//84
f 21//21 57//57 56//56
f 29//29 74//74 17//17
f 30//30 77//77 31//31
f 18//18 79//79 53//53
f 32//32 80//80 45//45
f 52//52 31//31 12//12
f 102//102 17//17 33//33
f 104//104 53//53 84//84
f 34//34 45//45 56//56
f 102//102 54//54 62//62
f 52//52 59//59 106//106
f 34//34 35//35 36//36
f 104//104 91//91 43//43
f 21//21 41//41 11//11
f 37//37 63//63 38//38
f 27//27 86//86 89//89
f 39//39 46//46 19//19
f 39//39 31//31 77//77
f 27//27 17//17 74//74
f 21//21 45//45 80//80
f 37//37 53//53 79//79
f 40//40 41//41 62//62
f 42//42 86//86 106//106
f 25//25 63//63 36//36
f 26//26 46//46 43//43
f 16//16 17//17 101//101
f 44//44 31//31 107//107
f 67//67 45//45 108//108
f 65//65 53//53 66//66
f 40//40 11//11 41//41
f 25//25 38//38 63//63
f 42//42 89//89 86//86
f 26//26 19//19 46//46
f 55//55 22//22 103//103
f 47//47 48//48 105//105
f 83//83 49//49 24//24
f 50//50 23//23 51//51
f 102//102 101//101 17//17
f 52//52 107//107 31//31
f 34//34 108//108 45//45
f 104//104 66//66 53//53
f 52//52 51//51 59//59
f 102//102 24//24 54//54
f 104//104 105//105 91//91
f 34//34 103//103 35//35
f 55//55 103//103 56//56
f 47//47 105//105 84//84
f 50//50 51//51 12//12
f 83//83 24//24 33//33
f 7//7 50//50 28//28
f 8//8 83//83 20//20
f 10//10 55//55 57//57
f 9//9 47//47 85//85
f 40//40 82//82 11//11
f 25//25 96//96 38//38
f 42//42 68//68 89//89
f 26//26 58//58 19//19
f 40//40 54//54 81//81
f 42//42 59//59 60//60
f 25//25 35//35 73//73
f 26//26 91//91 61//61
f 75//75 62//62 41//41
f 64//64 106//106 86//86
f 78//78 36//36 63//63
f 76//76 43//43 46//46
f 64//64 44//44 107//107
f 75//75 16//16 101//101
f 76//76 65//65 66//66
f 78//78 67//67 108//108
f 92//92 88//88 68//68
f 95//95 69//69 58//58
f 94//94 87//87 82//82
f 70//70 15//15 96//96
f 71//71 72//72 81//81
f 90//90 98//98 60//60
f 14//14 99//99 73//73
f 13//13 5//5 61//61
f 76//76 46//46 77//77
f 78//78 63//63 79//79
f 64//64 86//86 74//74
f 75//75 41//41 80//80
f 76//76 77//77 30//30
f 64//64 74//74 29//29
f 78//78 79//79 18//18
f 75//75 80//80 32//32
f 40//40 81//81 2//2
f 40//40 2//2 82//82
f 25//25 73//73 97//97
f 42//42 60//60 93//93
f 25//25 97//97 96//96
f 26//26 61//61 100//100
f 42//42 93//93 68//68
f 26//26 100//100 58//58
f 83//83 33//33 20//20
f 50//50 12//12 28//28
f 55//55 56//56 57//57
f 47//47 84//84 85//85
f 39//39 77//77 46//46
f 27//27 74//74 86//86
f 37//37 79//79 63//63
f 21//21 80//80 41//41
f 87//87 11//11 82//82
f 15//15 38//38 96//96
f 88//88 89//89 68//68
f 69//69 19//19 58//58
f 71//71 81//81 54//54
f 90//90 60//60 59//59
f 14//14 73//73 35//35
f 13//13 61//61 91//91
f 92//92 68//68 93//93
f 94//94 82//82 2//2
f 95//95 58//58 100//100
f 70//70 96//96 97//97
f 72//72 2//2 81//81
f 98//98 93//93 60//60
f 99//99 97//97 73//73
f 5//5 100//100 61//61
f 75//75 101//101 62//62
f 64//64 107//107 106//106
f 78//78 108//108 36//36
f 76//76 66//66 43//43
f 52//52 12//12 51//51
f 102//102 33//33 24//24
f 34//34 56//56 103//103
f 104//104 84//84 105//105
f 102//102 62//62 101//101
f 52//52 106//106 107//107
f 34//34 36//36 108//108
f 104//104 43//43 66//66
# 172 faces, 0 coords texture

# End of File